<?xml version="1.0" encoding="utf-8"?>
<!-- Generator: Adobe Illustrator 27.5.0, SVG Export Plug-In . SVG Version: 6.00 Build 0)  -->
<svg version="1.1" xmlns="http://www.w3.org/2000/svg" xmlns:xlink="http://www.w3.org/1999/xlink" x="0px" y="0px"
	 viewBox="0 0 500 500" style="enable-background:new 0 0 500 500;" xml:space="preserve">
<g id="BACKGROUND">
	<rect style="fill:#CAD8FF;" width="500" height="500"/>
</g>
<g id="OBJECTS">
	<g>
		<rect x="0" y="377.962" style="fill:#FFFFFF;" width="500" height="114.038"/>
		<rect x="0" y="385.962" style="fill:#95A7DA;" width="500" height="114.038"/>
		<path style="fill:#8697C8;" d="M412.061,409.773c-2.458-2.367-5.738-3.69-9.15-3.69H250.519h-1.038H97.089
			c-3.413,0-6.692,1.323-9.15,3.69l-48.462,46.681c-8.549,8.235-2.72,22.689,9.15,22.689h200.854h1.038h200.854
			c11.87,0,17.699-14.454,9.15-22.689L412.061,409.773z"/>
	</g>
	<g>
		<g>
			<path style="fill:#726660;" d="M378.911,206.261h-259.95c-12.918,0-23.39,10.472-23.39,23.391v103.836h306.731V229.652
				C402.302,216.734,391.829,206.261,378.911,206.261z"/>
			<path style="fill:#564B44;" d="M378.911,213.01h-259.95c-12.918,0-23.39,10.472-23.39,23.391v103.836h306.731V236.4
				C402.302,223.482,391.829,213.01,378.911,213.01z"/>
			<g>
				<path style="fill:#E595C6;" d="M430.364,334.196v86.075H69.636v-86.075c0-15.197,12.315-27.512,27.512-27.512h305.705
					C418.049,306.684,430.364,318.999,430.364,334.196z"/>
			</g>
			<path style="opacity:0.6;fill:#BD6497;" d="M430.364,348.841l0,74.242H69.636v-74.242
				C69.636,358.536,430.364,358.536,430.364,348.841z"/>
			<g>
				<polygon style="fill:#434244;" points="71.841,472.101 77.599,472.101 100.054,425.462 87.387,425.462 				"/>
				<polygon style="fill:#434244;" points="428.159,472.101 422.401,472.101 399.946,425.462 412.613,425.462 				"/>
			</g>
			<rect x="55.471" y="370.728" style="fill:#726660;" width="389.057" height="8.453"/>
			<path style="fill:#564B44;" d="M421.138,445.31H78.862c-12.918,0-23.391-10.472-23.391-23.391v-43.172h389.057v43.172
				C444.529,434.838,434.056,445.31,421.138,445.31z"/>
		</g>
		<g>
			<g>
				<path style="fill:#FFFFFF;" d="M210.119,310.696c0.229,3.106-2.115,3.544-5.927,2.935c-2.497-0.382-5.622-1.201-9.091-2.002
					c-0.019,0-0.019,0-0.019,0c-1.449-0.324-2.954-0.648-4.498-0.933c-4.802-0.877-15.151-1.277-25.004-1.201h-0.019
					c-4.498,0.018-8.9,0.153-12.617,0.4c-3.106,0.19-5.717,0.457-7.547,0.8c-3.983,0.743-7.737,1.734-10.863,2.401
					c-3.202,0.705-5.756,1.067-7.242,0.458c-0.762-0.324-1.238-0.877-1.41-1.753v-0.058c-0.057-0.304-0.076-0.648-0.038-1.048
					c0.21-2.802,1.391-8.1,2.573-14.122c0.667-3.468,1.334-7.165,1.81-10.767c0.495-3.526,0.781-6.976,0.724-10.006
					c-0.02-1.449-0.038-3.011-0.076-4.65v-0.02c-0.019-2.286-0.076-4.726-0.133-7.222c-0.095-4.364-0.266-8.901-0.572-13.055
					c-0.153-2.287-0.362-4.441-0.629-6.384c-0.362-2.764-0.839-5.088-1.468-6.728c-2.668-6.994,2.44-5.66,8.214-2.763
					c2.382,0.895,5.717,1.62,9.644,2.191c4.65,0.648,10.12,1.086,15.78,1.258c8.042,0.286,16.466,0.076,23.498-0.553
					c3.469-0.324,6.594-0.743,9.148-1.277c2.249-0.458,4.059-1.011,5.317-1.62c2.078-1.029,4.06-1.868,5.622-2.191
					c2.821-0.591,4.308,0.476,2.611,4.954c-0.629,1.64-1.125,4.002-1.487,6.785c-0.362,2.668-0.591,5.737-0.781,8.958v0.019
					c-0.172,2.726-0.286,5.584-0.343,8.386c-0.114,3.183-0.171,6.308-0.209,9.204v0.02c-0.019,1.658-0.057,3.239-0.076,4.688
					c-0.057,2.744,0.191,5.832,0.572,9.014c0.305,2.249,0.667,4.555,1.067,6.823c0.743,4.288,1.62,8.462,2.325,11.949
					c0.496,2.573,0.896,4.783,1.068,6.385C210.081,310.22,210.099,310.467,210.119,310.696z"/>
				<g style="display:none;">
					<g style="display:inline;">
						<path style="opacity:0.5;fill:#639EBD;" d="M178.948,238.428c-2.497,0.915-5.165,1.753-8.004,2.458
							c-9.815,2.439-17.496,6.003-23.537,9.967c-0.153-2.287-0.362-4.441-0.629-6.384c4.612-2.744,10.025-5.241,16.39-7.299
							C167.818,237.818,173.288,238.256,178.948,238.428z"/>
					</g>
					<g style="display:inline;opacity:0.5;">
						<path style="fill:#639EBD;" d="M211.595,236.599c-6.652,7.985-17.248,16.008-34.095,20.201
							c-13.283,3.335-22.679,8.672-29.387,14.332c-0.019-2.286-0.076-4.726-0.133-7.222c6.918-5.031,16.027-9.625,28.129-12.655
							c11.873-2.973,20.335-7.967,26.338-13.379C205.915,237.552,209.041,237.132,211.595,236.599z"/>
					</g>
					<g style="display:inline;">
						<path style="opacity:0.5;fill:#639EBD;" d="M225.145,237.742c-0.629,1.64-1.124,4.002-1.487,6.785
							c-5.66,10.082-17.038,22.546-39.602,28.187c-20.754,5.184-31.998,15.342-38.402,23.861c0.667-3.468,1.334-7.165,1.81-10.767
							c7.395-7.242,18.429-14.446,35.2-18.638c28.644-7.166,37.373-26.128,39.869-34.381
							C225.354,232.196,226.841,233.264,225.145,237.742z"/>
					</g>
					<g style="display:inline;">
						<path style="opacity:0.5;fill:#639EBD;" d="M222.534,261.889c-0.114,3.183-0.171,6.308-0.209,9.204v0.02
							c-6.728,7.051-16.771,13.779-31.713,17.514c-21.231,5.299-32.513,15.818-38.84,24.47c-3.201,0.705-5.756,1.067-7.242,0.458
							c6.194-9.891,18.391-23.917,44.71-30.493C206.697,278.716,216.76,269.931,222.534,261.889z"/>
					</g>
					<g style="display:inline;">
						<path style="opacity:0.5;fill:#639EBD;" d="M223.887,291.638c-6.422,5.259-15.075,9.986-26.7,12.883
							c-5.413,1.353-10.177,3.049-14.37,4.975h-0.019c-4.498,0.018-8.9,0.153-12.617,0.4c6.575-4.364,14.923-8.252,25.614-10.92
							c12.331-3.088,20.982-8.424,27.024-14.16C223.125,287.064,223.487,289.37,223.887,291.638z"/>
					</g>
					<g style="display:inline;">
						<path style="opacity:0.5;fill:#639EBD;" d="M227.28,309.972c-1.792,1.257-3.736,2.496-5.851,3.659
							c-2.497-0.382-5.622-1.201-9.091-2.002c5.565-2.286,10.119-5.069,13.874-8.042C226.708,306.16,227.108,308.371,227.28,309.972
							z"/>
					</g>
				</g>
				<path style="fill:#E5E5E6;" d="M210.119,310.696c0.439,6.003-8.652,2.001-19.534,0c-8.824-1.62-36.362-1.62-45.187,0
					c-10.119,1.867-18.715,5.45-19.515,1.105v-0.058c0.915-11.111,7.661-23.994,7.661-23.994
					c61.691,8.576,72.077-34.286,72.077-34.286s0,0,0.019,0.019v0.019c-0.457,7.623-0.514,16.124-0.629,22.298
					C204.782,287.331,209.68,304.712,210.119,310.696z"/>
			</g>
			<g>
				<path style="fill:#FFFFFF;" d="M372.422,310.696c0.229,3.106-2.115,3.544-5.927,2.935c-2.497-0.382-5.622-1.201-9.091-2.002
					c-0.019,0-0.019,0-0.019,0c-1.448-0.324-2.954-0.648-4.498-0.933c-4.802-0.877-15.151-1.277-25.004-1.201h-0.019
					c-4.498,0.018-8.9,0.153-12.616,0.4c-3.106,0.19-5.718,0.457-7.547,0.8c-3.983,0.743-7.737,1.734-10.863,2.401
					c-3.202,0.705-5.755,1.067-7.242,0.458c-0.762-0.324-1.238-0.877-1.41-1.753v-0.058c-0.057-0.304-0.076-0.648-0.038-1.048
					c0.21-2.802,1.391-8.1,2.573-14.122c0.667-3.468,1.334-7.165,1.81-10.767c0.496-3.526,0.781-6.976,0.724-10.006
					c-0.019-1.449-0.038-3.011-0.076-4.65v-0.02c-0.019-2.286-0.076-4.726-0.134-7.222c-0.095-4.364-0.267-8.901-0.572-13.055
					c-0.153-2.287-0.362-4.441-0.629-6.384c-0.362-2.764-0.838-5.088-1.467-6.728c-2.668-6.994,2.44-5.66,8.214-2.763
					c2.382,0.895,5.717,1.62,9.644,2.191c4.65,0.648,10.12,1.086,15.78,1.258c8.043,0.286,16.466,0.076,23.498-0.553
					c3.469-0.324,6.594-0.743,9.148-1.277c2.249-0.458,4.059-1.011,5.317-1.62c2.077-1.029,4.059-1.868,5.622-2.191
					c2.82-0.591,4.308,0.476,2.611,4.954c-0.629,1.64-1.125,4.002-1.487,6.785c-0.362,2.668-0.591,5.737-0.781,8.958v0.019
					c-0.172,2.726-0.286,5.584-0.343,8.386c-0.114,3.183-0.171,6.308-0.209,9.204v0.02c-0.019,1.658-0.057,3.239-0.076,4.688
					c-0.057,2.744,0.191,5.832,0.572,9.014c0.305,2.249,0.667,4.555,1.067,6.823c0.744,4.288,1.62,8.462,2.326,11.949
					c0.496,2.573,0.896,4.783,1.068,6.385C372.384,310.22,372.402,310.467,372.422,310.696z"/>
				<g style="display:none;">
					<g style="display:inline;">
						<path style="opacity:0.5;fill:#639EBD;" d="M308.516,238.428c-2.497,0.915-5.164,1.753-8.004,2.458
							c-9.815,2.439-17.496,6.003-23.537,9.967c-0.153-2.287-0.362-4.441-0.629-6.384c4.612-2.744,10.025-5.241,16.39-7.299
							C297.386,237.818,302.856,238.256,308.516,238.428z"/>
					</g>
					<g style="display:inline;">
						<path style="opacity:0.5;fill:#639EBD;" d="M341.163,236.599c-6.652,7.985-17.248,16.008-34.095,20.201
							c-13.284,3.335-22.679,8.672-29.387,14.332c-0.019-2.286-0.076-4.726-0.134-7.222c6.918-5.031,16.028-9.625,28.13-12.655
							c11.873-2.973,20.335-7.967,26.338-13.379C335.483,237.552,338.609,237.132,341.163,236.599z"/>
					</g>
					<g style="display:inline;">
						<path style="opacity:0.5;fill:#639EBD;" d="M354.713,237.742c-0.629,1.64-1.125,4.002-1.487,6.785
							c-5.66,10.082-17.038,22.546-39.602,28.187c-20.754,5.184-31.998,15.342-38.402,23.861c0.667-3.468,1.334-7.165,1.81-10.767
							c7.395-7.242,18.429-14.446,35.2-18.638c28.644-7.166,37.373-26.128,39.869-34.381
							C354.922,232.196,356.409,233.264,354.713,237.742z"/>
					</g>
					<g style="display:inline;">
						<path style="opacity:0.5;fill:#639EBD;" d="M352.102,261.889c-0.114,3.183-0.171,6.308-0.209,9.204v0.02
							c-6.728,7.051-16.771,13.779-31.713,17.514c-21.23,5.299-32.512,15.818-38.84,24.47c-3.202,0.705-5.756,1.067-7.242,0.458
							c6.194-9.891,18.391-23.917,44.71-30.493C336.265,278.716,346.327,269.931,352.102,261.889z"/>
					</g>
					<g style="display:inline;">
						<path style="opacity:0.5;fill:#639EBD;" d="M353.455,291.638c-6.422,5.259-15.075,9.986-26.7,12.883
							c-5.413,1.353-10.177,3.049-14.37,4.975h-0.019c-4.498,0.018-8.9,0.153-12.616,0.4c6.575-4.364,14.922-8.252,25.614-10.92
							c12.331-3.088,20.982-8.424,27.024-14.16C352.693,287.064,353.055,289.37,353.455,291.638z"/>
					</g>
					<g style="display:inline;">
						<path style="opacity:0.5;fill:#639EBD;" d="M356.848,309.972c-1.792,1.257-3.736,2.496-5.851,3.659
							c-2.497-0.382-5.622-1.201-9.091-2.002c5.565-2.286,10.119-5.069,13.874-8.042
							C356.276,306.16,356.676,308.371,356.848,309.972z"/>
					</g>
				</g>
				<path style="fill:#E5E5E6;" d="M372.422,310.696c0.439,6.003-8.652,2.001-19.535,0c-8.824-1.62-36.362-1.62-45.186,0
					c-10.119,1.867-18.715,5.45-19.515,1.105v-0.058c0.915-11.111,7.661-23.994,7.661-23.994
					c61.691,8.576,72.077-34.286,72.077-34.286s0,0,0.019,0.019v0.019c-0.458,7.623-0.515,16.124-0.629,22.298
					C367.085,287.331,371.983,304.712,372.422,310.696z"/>
			</g>
		</g>
	</g>
	<g>
		<g>
			<path style="fill:#726660;" d="M461.137,177.462l0-58.099l-58.474,0l0,58.099L461.137,177.462z M407.704,124.403l48.392,0
				l0,48.017l-48.392,0L407.704,124.403z"/>
			<g>
				<g>
					<rect x="414.704" y="131.403" style="fill:#7E5BA3;" width="34.392" height="34.017"/>
					<path style="fill:#FFFFFF;" d="M407.704,172.421l48.392,0l0-48.017l-48.392,0L407.704,172.421z M414.704,131.403l34.392,0
						l0,34.017l-34.392,0L414.704,131.403z"/>
					<rect x="414.704" y="61.46" style="fill:#E595C6;" width="34.392" height="34.017"/>
					<path style="fill:#FFFFFF;" d="M407.704,54.46l0,48.017l48.392,0l0-48.017L407.704,54.46z M449.097,95.477l-34.392,0l0-34.017
						l34.392,0L449.097,95.477z"/>
				</g>
				<path style="fill:#726660;" d="M461.137,107.518l0-58.099l-58.474,0l0,58.099L461.137,107.518z M407.704,54.46l48.392,0
					l0,48.017l-48.392,0L407.704,54.46z"/>
			</g>
		</g>
		<g>
			<g>
				<g>
					<path style="fill:#549B54;" d="M102.474,92.407c0-2.491-2.015-4.506-4.506-4.506H51.6v9.012h46.368
						C100.459,96.912,102.474,94.897,102.474,92.407z"/>
					<path style="fill:#478447;" d="M98.234,92.407c0-2.491-2.023-4.506-4.506-4.506H55.839v9.012h37.889
						C96.211,96.912,98.234,94.897,98.234,92.407z"/>
					<path style="fill:#549B54;" d="M93.88,92.407c0-2.491-2.023-4.506-4.506-4.506H51.6v9.012h37.775
						C91.857,96.912,93.88,94.897,93.88,92.407z"/>
					<path style="fill:#478447;" d="M80.142,92.407c0-2.491-2.023-4.506-4.506-4.506H51.6v9.012h24.036
						C78.118,96.912,80.142,94.897,80.142,92.407z"/>
					<path style="fill:#549B54;" d="M75.964,92.407c0-2.491-2.023-4.506-4.506-4.506H51.6v9.012h19.858
						C73.94,96.912,75.964,94.897,75.964,92.407z"/>
					<path style="fill:#F0F1F1;" d="M66.524,95.995H51.603v-7.279h14.921c2.01,0,3.639,1.629,3.639,3.639
						C70.164,94.365,68.534,95.995,66.524,95.995z"/>
					
						<line style="fill:none;stroke:#CFD1D2;stroke-width:0.4788;stroke-miterlimit:10;" x1="51.603" y1="94.764" x2="66.395" y2="94.764"/>
					
						<line style="fill:none;stroke:#CFD1D2;stroke-width:0.4788;stroke-miterlimit:10;" x1="51.603" y1="93.176" x2="66.395" y2="93.176"/>
					
						<line style="fill:none;stroke:#CFD1D2;stroke-width:0.4788;stroke-miterlimit:10;" x1="51.603" y1="91.589" x2="66.395" y2="91.589"/>
					
						<line style="fill:none;stroke:#CFD1D2;stroke-width:0.4788;stroke-miterlimit:10;" x1="51.603" y1="90.002" x2="66.395" y2="90.002"/>
				</g>
				<g>
					<path style="fill:#E1974A;" d="M105.579,110.606c0-2.491-2.015-4.506-4.506-4.506H54.705v9.011h46.368
						C103.563,115.112,105.579,113.096,105.579,110.606z"/>
					<path style="fill:#CC7425;" d="M101.339,110.606c0-2.491-2.023-4.506-4.506-4.506H58.944v9.011h37.889
						C99.316,115.112,101.339,113.096,101.339,110.606z"/>
					<path style="fill:#E1974A;" d="M96.985,110.606c0-2.491-2.023-4.506-4.506-4.506H54.705v9.011h37.775
						C94.962,115.112,96.985,113.096,96.985,110.606z"/>
					<path style="fill:#CC7425;" d="M83.246,110.606c0-2.491-2.023-4.506-4.506-4.506H54.705v9.011h24.036
						C81.223,115.112,83.246,113.096,83.246,110.606z"/>
					<path style="fill:#E1974A;" d="M79.068,110.606c0-2.491-2.023-4.506-4.506-4.506H54.705v9.011h19.858
						C77.045,115.112,79.068,113.096,79.068,110.606z"/>
					<path style="fill:#F0F1F1;" d="M69.629,114.194H54.708v-7.279h14.921c2.01,0,3.639,1.629,3.639,3.639
						S71.639,114.194,69.629,114.194z"/>
					
						<line style="fill:none;stroke:#CFD1D2;stroke-width:0.4788;stroke-miterlimit:10;" x1="54.708" y1="112.963" x2="69.5" y2="112.963"/>
					
						<line style="fill:none;stroke:#CFD1D2;stroke-width:0.4788;stroke-miterlimit:10;" x1="54.708" y1="111.376" x2="69.5" y2="111.376"/>
					
						<line style="fill:none;stroke:#CFD1D2;stroke-width:0.4788;stroke-miterlimit:10;" x1="54.708" y1="109.789" x2="69.5" y2="109.789"/>
					
						<line style="fill:none;stroke:#CFD1D2;stroke-width:0.4788;stroke-miterlimit:10;" x1="54.708" y1="108.202" x2="69.5" y2="108.202"/>
				</g>
				<g>
					<path style="fill:#C44E59;" d="M93.34,101.506c0-2.491-2.015-4.506-4.506-4.506H42.465v9.011h46.368
						C91.325,106.012,93.34,103.997,93.34,101.506z"/>
					<path style="fill:#A82F3E;" d="M89.1,101.506c0-2.491-2.024-4.506-4.506-4.506h-37.89v9.011h37.89
						C87.077,106.012,89.1,103.997,89.1,101.506z"/>
					<path style="fill:#C44E59;" d="M84.746,101.506c0-2.491-2.023-4.506-4.506-4.506H42.465v9.011H80.24
						C82.723,106.012,84.746,103.997,84.746,101.506z"/>
					<path style="fill:#A82F3E;" d="M71.008,101.506c0-2.491-2.023-4.506-4.506-4.506H42.465v9.011h24.036
						C68.984,106.012,71.008,103.997,71.008,101.506z"/>
					<path style="fill:#C44E59;" d="M66.829,101.506c0-2.491-2.023-4.506-4.506-4.506H42.465v9.011h19.858
						C64.806,106.012,66.829,103.997,66.829,101.506z"/>
					<path style="fill:#F0F1F1;" d="M57.39,105.094H42.469v-7.279H57.39c2.01,0,3.639,1.629,3.639,3.639S59.4,105.094,57.39,105.094
						z"/>
					
						<line style="fill:none;stroke:#CFD1D2;stroke-width:0.4788;stroke-miterlimit:10;" x1="42.469" y1="103.864" x2="57.261" y2="103.864"/>
					
						<line style="fill:none;stroke:#CFD1D2;stroke-width:0.4788;stroke-miterlimit:10;" x1="42.469" y1="102.276" x2="57.261" y2="102.276"/>
					
						<line style="fill:none;stroke:#CFD1D2;stroke-width:0.4788;stroke-miterlimit:10;" x1="42.469" y1="100.689" x2="57.261" y2="100.689"/>
					
						<line style="fill:none;stroke:#CFD1D2;stroke-width:0.4788;stroke-miterlimit:10;" x1="42.469" y1="99.102" x2="57.261" y2="99.102"/>
				</g>
			</g>
			<g>
				<g>
					<rect x="38.839" y="124.033" style="fill:#564B44;" width="4.254" height="14.947"/>
					<rect x="106.761" y="124.033" style="fill:#564B44;" width="4.254" height="14.947"/>
				</g>
				<rect x="29.961" y="115.112" style="fill:#726660;" width="89.933" height="10.6"/>
			</g>
		</g>
		<g>
			<path style="fill:#726660;" d="M170.675,110.28V22.067h158.649v88.213L170.675,110.28z M182.923,33.124v66.1l134.154,0v-66.1
				H182.923z M190.742,98.205h-6.603V34.143h131.721v64.062L190.742,98.205z"/>
			<path style="fill:#FFFFFF;" d="M323.68,27.595l-147.359,0l0,77.156l147.359,0V27.595L323.68,27.595z"/>
			<rect x="190.742" y="39.671" style="fill:#DDD8CC;" width="118.174" height="53.006"/>
			<g>
				<rect x="190.742" y="39.671" style="fill:#C44E59;" width="118.515" height="8.834"/>
				<rect x="190.742" y="48.505" style="fill:#E1974A;" width="118.515" height="8.834"/>
				<rect x="190.742" y="57.339" style="fill:#EFCF68;" width="118.515" height="8.834"/>
				<rect x="190.742" y="66.174" style="fill:#549B54;" width="118.515" height="8.834"/>
				<rect x="190.742" y="75.008" style="fill:#4B6CCF;" width="118.515" height="8.834"/>
				<rect x="190.742" y="83.842" style="fill:#7E5BA3;" width="118.515" height="8.834"/>
			</g>
		</g>
	</g>
	<g>
		<path style="fill:#C38D80;" d="M288.346,166.48c0,0,3.668,17.042,16.604,21.249l-27.172,36.69l2.517-21.278
			c0,0-6.478-15.691-10.673-16.76C269.622,186.38,282.607,166.407,288.346,166.48z"/>
		<path style="fill:#4F67B0;" d="M330.32,341.52c-10.662,2.036-30.642,2.078-50.832,1.396c-5.1-0.168-10.211-0.388-15.185-0.63
			c-24.734-1.207-46.141-3.064-46.141-3.064l4.365-25.164l65.67-18.07c0,0,31.733-4.68,47.212,5.908
			c2.781,1.899,5.037,4.302,6.496,7.304c0,0,3.085,5.562,4.009,12.12C347.037,329.284,344.97,338.729,330.32,341.52z"/>
		<path style="opacity:0.4;fill:#7EBF81;" d="M330.32,341.52c-10.662,2.036-30.642,2.078-50.832,1.396
			c-5.1-0.168-10.211-0.388-15.185-0.63l4.478-6.727c0,0,65.701,4.882,64.362-11.543c-15.478-13.336-21.25-23.611-21.25-23.611
			l34.021,20.914C347.037,329.284,344.97,338.729,330.32,341.52z"/>
		<path style="fill:#B78076;" d="M223.456,313.266c0-0.716,49.643-43.199,49.643-43.199l4.122-23.452L295.076,249l-8.993,33.231
			l-55.195,35.617L223.456,313.266z"/>
		<path style="fill:#373638;" d="M265.353,339.222c0,0-11.879,1.102-28.103,2.193c-26.812,1.805-65.492,3.61-82.146,0.43
			c-26.738-5.09-15.499-40.055-15.499-40.055c0.535-1.112,1.175-2.12,1.91-3.043c12.351-15.583,50.822-6.548,50.822-6.548
			l68.651,21.859L265.353,339.222z"/>
		<path style="opacity:0.15;fill:#373638;" d="M237.25,341.415c-26.812,1.805-65.492,3.61-82.146,0.43
			c-26.738-5.09-15.499-40.055-15.499-40.055c0.535-1.112,1.175-2.12,1.91-3.043l35.301,3.988c0,0-14.691,11.659-21.796,13.852
			c0,0,3.463,5.089,16.801,5.467c13.327,0.378,49.363-13.632,69.417-9.738C252.466,314.499,245.53,329.043,237.25,341.415z"/>
		<path style="fill:#FFFFFF;" d="M183.24,329.168c0,0-3.761-0.007-9.33-2.99c-4.569-2.448-11.049,0.05-13.079,3.732
			c-3.421,6.205-15.396,9.232-19.412,9.547c-6.086,0.477-10.56,8.752-7.283,9.388c13.13,2.546,38.638-2.639,44.048-2.719
			c5.41-0.08,12.817-0.37,12.817-0.37L183.24,329.168z"/>
		<path style="fill:#434244;" d="M178.651,324.181c-0.339-1.267,66.549-12.808,72.794-13.445
			c6.245-0.636,22.594,4.137,22.594,15.275c0,11.138-5.41,18.139-16.548,19.093c-11.138,0.955-70.725,1.273-70.725,1.273
			C180.185,335.638,180.185,329.91,178.651,324.181z"/>
		<path style="fill:#D8A49C;" d="M209.628,203.904l35.71,24.378l17.495-49.128l8.572,8.267c0,0-12.56,65.378-15.19,66.199
			c-2.631,0.821-60.926-22.432-60.926-22.432S199.405,208.94,209.628,203.904z"/>
		<g>
			<g>
				<g>
					<path style="fill:#C38D80;" d="M246.718,163.639c-0.087,1.781,2.508,3.553,2.54,5.377c0.013,1.621,0.159,3.188,0.42,4.669
						l0.012,0.013c0.031,0.217,0.076,0.403,0.113,0.62l0.035,0.143c0.126,0.608,0.27,1.206,0.434,1.792
						c0.097,0.349,0.195,0.686,0.299,1.023c1.312,4.075,3.491,7.351,6.028,9.513c0.638,0.551,1.299,1.024,1.976,1.43
						c1.586,0.942,3.256,1.471,4.898,1.526c0.798,0.002,1.601,0.022,2.469-0.027c2.419-0.135,5.293-0.821,9.673-4.067
						c0.263-0.194,10.209-12.648,10.209-12.648s10.294,0.613,11.408-0.098c10.885-6.97,9.549-19.607,9.549-19.607
						c-0.161-2.169-0.498-4.152-0.957-5.933c-4.235-16.433-19.357-17.642-19.357-17.642c-11.72-2.227-27.025,7.944-31.432,23.519
						c-0.839,3.371-2.311,5.431-3.787,6.797c-0.298,0.278-0.6,0.525-0.895,0.754C248.44,162.256,246.75,162.738,246.718,163.639z"/>
				</g>
				<path style="fill:#434244;" d="M281.043,166.261l1.316-10.15c0,0-3.203-7.037-2.407-12.59c0,0-10.981-6.538-15.724-5.548
					c0,0,18.188-20.16,38.402-0.271c22.364,22.005-8.246,41.966-8.246,41.966c-7.701-2.921-11.036-7.467-11.036-7.467
					L281.043,166.261z"/>
				<path style="opacity:0.3;fill:#C38D80;" d="M258.573,188.219c1.586,0.942,3.256,1.471,4.898,1.526
					c0.798,0.002,1.601,0.022,2.469-0.027c13.031-0.702,15.101-17.492,15.103-17.517
					C281.043,172.201,276.773,190.527,258.573,188.219z"/>
				<g>
					<path style="fill:#C38D80;" d="M279.504,168.534l-0.457,2.741c5.572,4.205,13.069,0.014,15.866-4.485
						c1.406-2.271,1.616-4.614-0.193-6.026c-3.836-2.957-8.704-0.018-11.243,1.967C281.167,164.193,279.504,168.534,279.504,168.534
						z"/>
					<path style="fill:#B46F61;" d="M291.182,164.261c-4.451-1.497-8.448,1.427-8.617,1.553c-0.172,0.128-0.2,0.359-0.065,0.518
						c0.048,0.056,0.109,0.095,0.178,0.117c0.124,0.04,0.268,0.021,0.379-0.062c0.024-0.017,1.518-1.108,3.615-1.589
						c1.181,1.436-0.541,3.612-0.56,3.635c-0.132,0.163-0.1,0.394,0.075,0.516c0.033,0.023,0.07,0.042,0.107,0.053
						c0.158,0.051,0.341,0.005,0.448-0.127c0.087-0.106,1.898-2.396,0.775-4.225c1.017-0.134,2.132-0.102,3.27,0.265
						c0.038,0.012,0.077,0.025,0.115,0.038c0.172,0.089,0.434-0.029,0.511-0.22C291.491,164.543,291.387,164.331,291.182,164.261z"
						/>
				</g>
				<g>
					<path style="fill:#434244;" d="M270.426,154.493c0.632-0.207-0.687-4.762-3.862-6.213c-2.004-0.917-4.249-0.958-6.68-0.125
						c-0.503,0.173-0.85,0.634-0.793,1.157c0.094,0.849,0.975,1.351,1.716,1.092c1.81-0.629,3.429-0.626,4.81,0.005
						C267.813,151.412,270.299,154.535,270.426,154.493z"/>
				</g>
				<g>
					<path style="fill:#B46F61;" d="M264.562,168.87c0.114-0.403,1.271-0.478,2.583-0.168c1.312,0.31,2.283,0.888,2.168,1.29
						c-0.115,0.403-1.271,0.478-2.583,0.168C265.418,169.851,264.447,169.273,264.562,168.87z"/>
					<path style="fill:#B46F61;" d="M264.643,166.394c0.01,0.415,1.119,0.716,2.476,0.673c1.357-0.043,2.448-0.416,2.437-0.831
						c-0.011-0.415-1.119-0.716-2.476-0.673C265.724,165.607,264.632,165.979,264.643,166.394z"/>
				</g>
				<g>
					<path style="fill:#434244;" d="M259.948,155.798c-0.91,0.341-3.036,3.343-0.153,4.511c3.442,1.123,5.679-0.788,6.091-1.39
						c-0.926,0.332-3.445,1.356-5.416,0.183C258.723,158.143,259.551,156.407,259.948,155.798z"/>
					<polygon style="fill:#434244;" points="264.684,159.653 267.663,161.357 265.887,158.919 					"/>
				</g>
			</g>
			<path style="display:none;fill:#E5B7AC;" d="M245.654,170.433l-1.15,1.42c0,0,0.735,2.283,2.29,2.885
				c0,0-1.168,1.006-0.727,2.123c1.514,0.514,2.488,2.14,3.452,3.786L245.654,170.433z"/>
			<path style="fill:#434244;" d="M325.128,129.145c0,0,2.726-1.842,4.695,0.545c1.827,2.214-0.123,4.642-0.123,4.642
				s4.663-1.224,5.905,2.148c1.243,3.373-2.399,5.386-2.399,5.386s3.358,2.662,2.538,4.44c-0.82,1.778-3.412,2.593-3.412,2.593
				s3.052,3.167,1.208,5.798c-1.844,2.632-4.148,1.308-4.148,1.308s1.004,1.976-0.826,3.679c-1.831,1.703-3.612-0.051-3.612-0.051
				s0.215,3.022-3.404,3.487c-3.62,0.465-5.129-2.295-5.129-2.295s1.04,3.089-3.34,3.009c-6.764-0.124-11.338-23.447-11.338-23.447
				s-1.766-6.053,1.868-8.2c3.181-1.879,5.212,0.301,5.212,0.301s0.36-3.565,2.528-3.556c2.168,0.009,3.126,2.088,3.126,2.088
				s-0.715-3.469,1.023-4.115c2.232-0.829,3.508,1.208,3.508,1.208s2.152-2.79,3.954-2.507
				C324.764,125.89,325.128,129.145,325.128,129.145z"/>
		</g>
		<path style="fill:#EFCF68;" d="M350.017,325.853c0,0-5.173-0.294-11.827-3.799c-3.767-1.983-8.007-4.995-12.047-9.57
			c-12.561-14.24-40.454-16.465-40.454-16.465c3.348-6.926-2.267-36.036-2.267-36.036s-4.806-1.322-9.549-4.88
			c-2.151-1.626-4.292-3.704-5.96-6.338c-5.572-8.825,6.611-25.605,9.854-29.792c0.483-0.619,0.766-0.965,0.766-0.965
			c0.262-1.7,0.577-3.337,0.923-4.911c3.169-14.335,9.833-23.548,22.069-26.875C340.531,189.8,355.044,328.508,350.017,325.853z"/>
		<path style="opacity:0.5;fill:#EEC12D;" d="M338.191,322.054c-3.767-1.983-8.007-4.995-12.047-9.57
			c-12.561-14.24-40.454-16.465-40.454-16.465c3.348-6.926-2.267-36.036-2.267-36.036s-10.179-2.791-15.51-11.218
			c-6.401-10.137,10.62-30.757,10.62-30.757c0.262-1.7,0.577-3.337,0.923-4.911c5.152-2.687,10.074-6.212,13.159-10.704
			l20.977,14.009c0,0,2.917,66.678-4.869,74.559c0,0,14.125,6.527,32.174-4.386c-1.637,1.018-9.985,8.977-25.594,11.732
			C315.304,298.307,333.028,309.745,338.191,322.054z"/>
		<path style="opacity:0.5;fill:#EEC12D;" d="M289.72,226.518c0,0-10.851,19.529-15.846,28.585c-2.151-1.626-4.292-3.704-5.96-6.338
			c-5.572-8.825,6.611-25.605,9.854-29.792L289.72,226.518z"/>
		<path style="fill:#C38D80;" d="M297.985,198.642c0,0-11.036,4.455-10.451,17.184c0.586,12.729-2.761,55.968-2.761,55.968
			l-48.563,28.596l11.654,8.199l49.325-18.698c7.76-11.215,12.37-41.246,16.389-71.519
			C313.578,218.372,314.692,195.449,297.985,198.642z"/>
		<g>
			<path style="fill:#E5B7AC;" d="M198.699,186.868l13.717-26.307l16.241,25.661c0,0-9.664,11.504-10.677,19.383
				C217.98,205.605,206.401,209.992,198.699,186.868z"/>
			<path style="opacity:0.5;fill:#CA7E86;" d="M223.835,192.009l2.709-5.983L215.987,163.7c-0.053,0.113-0.094,0.236-0.151,0.351
				C211.587,172.548,217.117,185.279,223.835,192.009z"/>
			<path style="opacity:0.3;fill:#C38D80;" d="M246.717,163.639c-0.089,1.781,2.511,3.553,2.542,5.375
				c0.014,1.627,0.159,3.189,0.419,4.669l0.01,0.017c0.033,0.212,0.077,0.403,0.115,0.62l0.036,0.14
				c0.126,0.61,0.27,1.21,0.431,1.794c0.059-0.163,0.118-0.325,0.171-0.488l0.052-0.135c0.061-0.207,0.132-0.391,0.194-0.603
				l0.006-0.016c0.434-1.436,0.764-2.966,0.976-4.58c0.25-1.806,2.591-3.201,2.724-4.98c0.084-1.107-2.071-1.925-4.042-4.662
				C248.442,162.258,246.751,162.739,246.717,163.639z"/>
			<path style="fill:#E5B7AC;" d="M249.317,175.704c-2.932,8.844-9.661,14.062-15.363,13.536
				c-11.07-1.02-20.187-19.294-20.187-19.294s-10.298-0.62-11.318-1.469c-9.967-8.219-7.126-20.609-7.126-20.609
				c0.417-2.133,1-4.053,1.67-5.769c6.171-15.81,21.33-15.195,21.33-15.195c11.894-0.817,25.875,11.122,28.38,27.119
				c1.085,8.667,7.144,9.596,7.014,11.315c-0.132,1.776-2.921,3.223-3.17,5.033c-0.214,1.612-0.542,3.144-0.977,4.58l-0.007,0.017
				c-0.061,0.208-0.133,0.393-0.193,0.602L249.317,175.704z"/>
			<g>
				<path style="fill:#E5B7AC;" d="M220.576,166.266l0.125,2.776c-6.036,3.507-12.976-1.552-15.214-6.355
					c-1.124-2.423-1.051-4.774,0.914-5.959c4.162-2.476,8.644,1.026,10.926,3.3C219.446,161.757,220.576,166.266,220.576,166.266z"
					/>
				<path style="fill:#CA7E86;" d="M209.494,160.625c4.598-0.953,8.216,2.429,8.369,2.575c0.155,0.147,0.156,0.381,0.002,0.522
					c-0.054,0.05-0.12,0.081-0.19,0.094c-0.128,0.025-0.268-0.011-0.369-0.107c-0.022-0.02-1.374-1.282-3.398-2.01
					c-1.345,1.284,0.104,3.651,0.12,3.676c0.112,0.178,0.052,0.403-0.136,0.503c-0.036,0.019-0.074,0.033-0.113,0.04
					c-0.163,0.032-0.339-0.036-0.429-0.18c-0.073-0.115-1.597-2.606-0.263-4.287c-0.993-0.255-2.104-0.357-3.278-0.129
					c-0.039,0.007-0.079,0.016-0.118,0.024c-0.182,0.068-0.427-0.08-0.481-0.28C209.154,160.868,209.283,160.67,209.494,160.625z"/>
			</g>
			<g>
				<path style="fill:#434244;" d="M231.272,153.415c-0.603-0.281,1.252-4.645,4.579-5.705c2.099-0.67,4.333-0.442,6.646,0.676
					c0.479,0.231,0.768,0.731,0.648,1.244c-0.195,0.831-1.13,1.225-1.834,0.879c-1.722-0.841-3.33-1.032-4.776-0.572
					C234.236,150.669,231.393,153.472,231.272,153.415z"/>
			</g>
			<g>
				<path style="fill:#CA7E86;" d="M235.37,168.391c-0.065-0.414-1.204-0.627-2.544-0.476c-1.34,0.151-2.373,0.608-2.307,1.021
					c0.066,0.413,1.204,0.627,2.544,0.476C234.403,169.262,235.436,168.805,235.37,168.391z"/>
				<path style="fill:#CA7E86;" d="M235.586,165.923c-0.06,0.411-1.197,0.577-2.539,0.371c-1.342-0.206-2.381-0.706-2.32-1.117
					c0.061-0.411,1.197-0.577,2.539-0.371C234.608,165.012,235.647,165.513,235.586,165.923z"/>
			</g>
			<g>
				<path style="fill:#434244;" d="M241.517,155.967c0.863,0.447,2.614,3.682-0.389,4.497c-3.552,0.703-5.544-1.463-5.88-2.111
					c0.88,0.441,3.257,1.759,5.355,0.832C242.453,158.442,241.839,156.619,241.517,155.967z"/>
				<polygon style="fill:#434244;" points="236.354,159.226 233.192,160.561 235.248,158.352 				"/>
			</g>
		</g>
		<g>
			<path style="fill:#7E5BA3;" d="M225.613,241.892v0.011c-0.304,1.154-0.724,2.141-1.28,2.917c-0.315,0.441-0.63,0.85-0.944,1.238
				c-6.821,8.594-12.425,6.485-12.425,6.485c-12.267,11.333-7.167,34.661-7.167,34.661s1.794,3.337,1.7,4.523
				c-0.147,1.847-3.022,3.704-3.022,3.704c-21.827-0.367-26.749,11.994-44.83,15.247c-18.07,3.253-23.506,0-23.506,0
				s13.422-61.074,24.461-85.304c15.216-33.37,41.272-41.451,41.272-41.451c5.908,3.274,22.037,20.988,24.073,34.672
				c0.809,5.436,2.12,11.218,2.267,16.181v0.053C226.295,237.516,226.127,239.94,225.613,241.892z"/>
		</g>
		<path style="fill:#434244;" d="M224.333,147.026c0,0,1.574,36.978,7.78,46.206c0,0-4.662-0.863-11.412-2.493
			c-0.583-0.141-3.624-7.769-3.624-7.769l0.537,7.319c-1.188-0.164-3.746-0.68-3.746-0.68l-1.139-4.749l-0.446,4.417
			c0,0-5.229-1.444-7.527-2.164l-2.556-7.444l-0.955,6.086c0,0-7.782-2.806-9.744-4.057c0,0-15.928-45.429,8.47-50.839
			c0,0,7.32-12.25,25.459-10.419c14.184,1.432,23.23,21.399,23.23,21.399c-1.815,1.1-3.956,1.654-6.522,1.498l-3.107-6.51
			l1.464,6.887c-1.958,1.028-5.099,1.705-8.203,1.884l-4.296-6.623l1.193,7.458L224.333,147.026z"/>
		<path style="opacity:0.3;fill:#C44E59;" d="M226.211,234.777v0.053l-0.598,7.062l-11.522-36.225c0,0,9.486,12.183,9.854,12.928
			C225.099,223.968,226.064,229.813,226.211,234.777z"/>
		<path style="opacity:0.3;fill:#C44E59;" d="M223.388,246.058c-6.821,8.594-12.425,6.485-12.425,6.485
			c-12.267,11.333-7.167,34.661-7.167,34.661s1.794,3.337,1.7,4.523c-0.147,1.847-3.022,3.704-3.022,3.704
			c-21.827-0.367-26.749,11.994-44.83,15.247c-18.07,3.253-23.506,0-23.506,0c29.288-0.388,52.259-19.393,52.259-19.393
			c-8.133-2.309-28.47,0-28.47,0c12.204-7.251,43.382-4.943,43.382-4.943c-4.198-5.373-2.613-34.735-2.613-34.735
			c-12.303-11.543-13.684-33.695-13.684-33.695l31.271,6.505L223.388,246.058z"/>
		<path style="fill:#E5B7AC;" d="M281.451,232.405c0,0-31.807,48.335-38.638,48.66c-4.407,0.21-24.566-21.68-38.292-37.211
			c-5.992-6.779-10.756-12.351-12.456-14.345c-0.441-0.514-0.672-0.787-0.672-0.787s-3.704-10.662,0.462-17.955
			c0.063-0.115,0.137-0.231,0.199-0.346c2.603-4.208,7.975-7.178,18.469-6.055l4.806,8.71l7.566,13.715l17.732,27.783l32.156-29.966
			C272.783,224.608,281.671,224.052,281.451,232.405z"/>
		<path style="opacity:0.5;fill:#CA7E86;" d="M222.895,226.791c0,0-7.283,13.138-18.375,17.063
			c-5.992-6.779-10.756-12.351-12.456-14.345c-0.902-8.227-0.336-17.053-0.21-18.742c0.01-0.189,0.021-0.294,0.021-0.294
			s0.063-0.021,0.178-0.053c1.658-0.451,14.565-3.715,23.275,2.655L222.895,226.791z"/>
		<g>
			<path style="fill:#7E5BA3;" d="M190.585,204.132c0,0-10.4,9.437-2.864,22.355c6.545,11.219,10.979,17.343,10.979,17.343
				s21.321-13.206,24.662-20.684l-9.272-17.478C209.578,199.665,200.055,196.941,190.585,204.132z"/>
		</g>
		<g>
			<path style="fill:#C38D80;" d="M223.541,315.501c-0.01-0.05-0.016-0.079-0.016-0.079c-0.011,0.017-0.022,0.042-0.033,0.059
				c-1.444,2.843-2.489,3.093-3.174,2.446c-0.658-0.623-0.205-2.75-0.162-2.952c-0.816,2.288-3.79,2.946-4.358,1.606
				c-0.559-1.334,3.231-10.955,4.38-11.962c1.142-1.006,7.024-3.722,7.024-3.722l-6.327-1.639c0,0-1.727-0.078-5.268,2.924
				c-3.54,3.009-5.101,1.388-5.089-0.11c0.013-1.491,7.442-8.038,8.96-8.113c1.511-0.073,8.626,2.773,11.648,2.664
				c0.71,0.166,1.652,0.301,2.705,0.399c3.254,0.314,11.407,1.55,13.209,3.377c0.001,0.007,0.01,0.013,0.018,0.019
				c2.356,2.41,4.356,5.895,1.009,9.126c-1.865,1.795-4.32,2.559-6.831,2.769c-5.444,0.473-11.129-1.649-11.49-1.407
				c-0.518,0.355-2.584,6.817-4.819,6.69C223.999,317.421,223.621,315.872,223.541,315.501z"/>
			<path style="fill:#B46F61;" d="M220.024,315.144c0.24-1.334,0.696-2.596,1.17-3.852c0.537-1.224,1.069-2.481,1.941-3.531
				C222.151,310.255,221.277,312.748,220.024,315.144z"/>
			<path style="fill:#B46F61;" d="M223.456,315.642c0.209-1.095,0.635-2.11,1.078-3.115c0.499-0.974,1.017-1.965,1.807-2.761
				C225.467,311.786,224.626,313.756,223.456,315.642z"/>
		</g>
		<g>
			<path style="fill:#E5B7AC;" d="M297.569,214.85c-0.038-0.034-0.06-0.053-0.06-0.053c0.021-0.001,0.047,0.002,0.067,0.001
				c3.183,0.198,3.928-0.576,3.718-1.494c-0.203-0.883-2.266-1.572-2.462-1.638c2.386,0.458,4.462-1.771,3.595-2.941
				c-0.866-1.159-11.08-2.773-12.531-2.294c-1.446,0.474-6.771,4.164-6.771,4.164l1.798-6.283c0,0,0.809-1.528,5.192-3.057
				c4.389-1.524,3.784-3.691,2.487-4.442c-1.291-0.745-10.703,2.335-11.537,3.606c-0.83,1.265-1.987,8.84-3.614,11.389
				c-0.217,0.696-0.578,1.576-1.028,2.534c-1.38,2.964-4.452,10.616-3.792,13.096c0.005,0.005,0.006,0.015,0.007,0.026
				c0.882,3.253,2.87,6.745,7.353,5.5c2.493-0.697,4.397-2.425,5.852-4.482c3.169-4.452,4.225-10.427,4.617-10.616
				c0.569-0.267,7.186,1.232,8.21-0.759C298.991,216.218,297.848,215.107,297.569,214.85z"/>
			<path style="fill:#CA7E85;" d="M299.046,211.637c-1.271-0.47-2.59-0.717-3.913-0.946c-1.327-0.158-2.68-0.338-4.028-0.119
				C293.754,210.99,296.346,211.502,299.046,211.637z"/>
			<path style="fill:#CA7E85;" d="M297.734,214.848c-1.05-0.375-2.14-0.523-3.231-0.652c-1.092-0.064-2.21-0.121-3.296,0.156
				C293.391,214.625,295.515,214.899,297.734,214.848z"/>
		</g>
	</g>
</g>
</svg>
